<svg width="19" height="20" viewBox="0 0 19 20" fill="none" xmlns="http://www.w3.org/2000/svg">
<path fill-rule="evenodd" clip-rule="evenodd" d="M4.31452 5.08978C4.31452 2.36399 6.52421 0.154297 9.25 0.154297C11.9758 0.154297 14.1855 2.36399 14.1855 5.08978C14.1855 7.81557 11.9758 10.0253 9.25 10.0253C6.52421 10.0253 4.31452 7.81557 4.31452 5.08978ZM9.25 1.89623C7.48625 1.89623 6.05645 3.32603 6.05645 5.08978C6.05645 6.85353 7.48625 8.28333 9.25 8.28333C11.0137 8.28333 12.4435 6.85353 12.4435 5.08978C12.4435 3.32603 11.0137 1.89623 9.25 1.89623Z" fill=""/>
<path fill-rule="evenodd" clip-rule="evenodd" d="M4.60484 13.5091C3.16177 13.5091 1.99194 14.679 1.99194 16.122V17.502C1.99194 17.523 2.00716 17.5409 2.0279 17.5443C6.81097 18.3252 11.689 18.3252 16.4721 17.5443C16.4928 17.5409 16.5081 17.523 16.5081 17.502V16.122C16.5081 14.679 15.3382 13.5091 13.8952 13.5091H13.4993C13.4687 13.5091 13.4383 13.514 13.4092 13.5235L12.4041 13.8517C10.3546 14.5209 8.14539 14.5209 6.09592 13.8517L5.0908 13.5235C5.06171 13.514 5.03129 13.5091 5.00069 13.5091H4.60484ZM0.25 16.122C0.25 13.7169 2.19973 11.7672 4.60484 11.7672H5.00069C5.21494 11.7672 5.42784 11.8011 5.6315 11.8676L6.63662 12.1958C8.33475 12.7503 10.1652 12.7503 11.8634 12.1958L12.8685 11.8676C13.0722 11.8011 13.2851 11.7672 13.4993 11.7672H13.8952C16.3003 11.7672 18.25 13.7169 18.25 16.122V17.502C18.25 18.3767 17.6161 19.1225 16.7528 19.2635C11.7838 20.0747 6.71618 20.0747 1.74722 19.2635C0.883929 19.1225 0.25 18.3767 0.25 17.502V16.122Z" fill=""/>
</svg>
