<svg xmlns="http://www.w3.org/2000/svg" width="25" height="25" viewBox="0 0 25 25" fill="none">
    <path fill-rule="evenodd" clip-rule="evenodd"
          d="M16.4001 4.2756L17.2135 4.37689C19.0908 4.6107 20.5 6.20629 20.5 8.09815V18.5876C20.5 20.4245 19.1317 21.9737 17.3089 22.2007C14.2813 22.5778 11.2187 22.5778 8.19107 22.2007C6.36826 21.9737 5 20.4245 5 18.5876V8.09814C5 6.20629 6.4092 4.6107 8.28655 4.37689L9.0999 4.2756C9.42208 3.11475 10.4865 2.2627 11.75 2.2627H13.75C15.0135 2.2627 16.0779 3.11475 16.4001 4.2756ZM9 5.79963L8.47193 5.8654C7.34552 6.00568 6.5 6.96303 6.5 8.09814V18.5876C6.5 19.6677 7.30458 20.5787 8.37645 20.7122C11.2809 21.0739 14.2191 21.0739 17.1235 20.7122C18.1954 20.5787 19 19.6677 19 18.5876V8.09815C19 6.96303 18.1545 6.00568 17.0281 5.8654L16.5 5.79963V7.0127C16.5 7.42691 16.1642 7.7627 15.75 7.7627H9.75C9.33579 7.7627 9 7.42691 9 7.0127V5.79963ZM10.5 5.0127C10.5 4.32234 11.0596 3.7627 11.75 3.7627H13.75C14.4404 3.7627 15 4.32234 15 5.0127V6.2627H10.5V5.0127Z"
          fill="#888888"/>
    <path d="M16.5 11.7627C16.5 11.3485 16.1642 11.0127 15.75 11.0127H9.75C9.33579 11.0127 9 11.3485 9 11.7627C9 12.1769 9.33579 12.5127 9.75 12.5127H15.75C16.1642 12.5127 16.5 12.1769 16.5 11.7627Z"
          fill="#888888"/>
    <path d="M15.5 14.7627C15.5 14.3485 15.1642 14.0127 14.75 14.0127H9.75C9.33579 14.0127 9 14.3485 9 14.7627C9 15.1769 9.33579 15.5127 9.75 15.5127H14.75C15.1642 15.5127 15.5 15.1769 15.5 14.7627Z"
          fill="#888888"/>
</svg>