<svg width="24" height="24" viewBox="0 0 24 24" fill="none" xmlns="http://www.w3.org/2000/svg">
    <path d="M23.6667 5.2439C23.2407 5.59299 22.0987 5.92432 20.4894 6.22607C15.549 7.10765 8.662 7.09582 3.69792 6.29115C1.75133 5.97757 0.402333 5.5634 0 5.13149C0.26625 2.31515 23.6667 2.2264 23.6667 5.2439ZM23.6667 5.8474V6.17282C23.6667 8.0839 14.5668 8.53357 13.348 8.56315C12.2652 8.58682 11.1884 8.58682 10.1057 8.55132C8.9105 8.51582 0 8.06024 0 6.17282V5.81782C0.715917 6.23199 1.97617 6.58699 3.60917 6.85915C8.63833 7.67565 15.5845 7.68749 20.59 6.78224C21.9449 6.52782 23.0099 6.21424 23.6667 5.8474ZM12.7918 9.13115C12.1528 11.2789 11.6499 16.9352 12.7918 18.87C13.2474 19.6273 13.9988 19.8522 14.8272 20.0001C15.1822 20.077 15.2946 19.5208 14.9277 19.4498C14.2 19.3137 13.561 19.1481 13.206 18.4322C15.6555 18.6333 17.4778 19.3256 17.4778 20.1539C17.4778 22.4673 6.19475 22.4673 6.19475 20.1539C6.19475 19.3492 7.9165 18.6688 10.2654 18.4558C9.95183 19.0948 9.39567 19.2723 8.733 19.4084C8.378 19.4853 8.4845 20.0474 8.85725 19.9646C9.60866 19.8107 10.2772 19.5622 10.6914 18.87C11.8333 16.9352 11.3422 11.2671 10.6914 9.13115C11.3896 9.14299 12.0877 9.14299 12.7918 9.13115Z" fill="white"/>
</svg>
