<svg width="24" height="25" viewBox="0 0 24 25" fill="none" xmlns="http://www.w3.org/2000/svg">
    <g clip-path="url(#clip0_2188_3655)">
        <path d="M12 0.257812C9.62663 0.257813 7.30655 0.9616 5.33316 2.28018C3.35977 3.59875 1.8217 5.4729 0.913451 7.66561C0.00519943 9.85833 -0.232441 12.2711 0.230582 14.5989C0.693605 16.9267 1.83649 19.0649 3.51472 20.7431C5.19295 22.4213 7.33115 23.5642 9.65892 24.0272C11.9867 24.4903 14.3995 24.2526 16.5922 23.3444C18.7849 22.4361 20.6591 20.898 21.9776 18.9247C23.2962 16.9513 24 14.6312 24 12.2578C23.9966 9.07627 22.7312 6.02602 20.4815 3.77633C18.2318 1.52664 15.1815 0.261254 12 0.257813V0.257812ZM12 22.2578C10.0222 22.2578 8.08879 21.6713 6.4443 20.5725C4.79981 19.4737 3.51809 17.9119 2.76121 16.0846C2.00433 14.2574 1.8063 12.2467 2.19215 10.3069C2.578 8.3671 3.53041 6.58527 4.92894 5.18675C6.32746 3.78822 8.10929 2.83581 10.0491 2.44996C11.9889 2.06411 13.9996 2.26214 15.8268 3.01902C17.6541 3.77589 19.2159 5.05762 20.3147 6.70211C21.4135 8.3466 22 10.28 22 12.2578C21.9971 14.9091 20.9426 17.4509 19.0679 19.3257C17.1931 21.2004 14.6513 22.2549 12 22.2578Z"
              fill="#DDDDDD"/>
        <path d="M11.9998 10.2578H10.9998C10.7346 10.2578 10.4802 10.3632 10.2927 10.5507C10.1052 10.7382 9.99982 10.9926 9.99982 11.2578C9.99982 11.523 10.1052 11.7774 10.2927 11.9649C10.4802 12.1525 10.7346 12.2578 10.9998 12.2578H11.9998V18.2578C11.9998 18.523 12.1052 18.7774 12.2927 18.9649C12.4802 19.1525 12.7346 19.2578 12.9998 19.2578C13.265 19.2578 13.5194 19.1525 13.7069 18.9649C13.8945 18.7774 13.9998 18.523 13.9998 18.2578V12.2578C13.9998 11.7274 13.7891 11.2187 13.414 10.8436C13.039 10.4685 12.5302 10.2578 11.9998 10.2578Z"
              fill="#DDDDDD"/>
        <path d="M12 8.25781C12.8284 8.25781 13.5 7.58624 13.5 6.75781C13.5 5.92939 12.8284 5.25781 12 5.25781C11.1716 5.25781 10.5 5.92939 10.5 6.75781C10.5 7.58624 11.1716 8.25781 12 8.25781Z"
              fill="#DDDDDD"/>
    </g>
    <defs>
        <clipPath id="clip0_2188_3655">
            <rect width="24" height="24" fill="white" transform="translate(0 0.257812)"/>
        </clipPath>
    </defs>
</svg>
