<svg xmlns="http://www.w3.org/2000/svg" version="1.1" xmlns:xlink="http://www.w3.org/1999/xlink" width="512" height="512" x="0" y="0" viewBox="0 0 16.933 16.933" style="enable-background:new 0 0 512 512" xml:space="preserve" class="">
  <g>
    <path fill="" stroke="#000" stroke-width="0.7" d="M7.633.99.826 3.803C.117 4.082.057 5.16.763 5.47c2.332.95 4.69 1.942 6.686 2.755.686.255 1.42.258 2.068-.002L12.8 6.87l3.14 1.298c.268.105.303.576.044.69L9.32 11.606c-.52.208-1.115.209-1.687-.004L.976 8.859c-.268-.127-.22-.59.047-.692l1.953-.806c.354-.122.135-.652-.202-.49l-1.948.805C.117 7.955.057 9.033.763 9.344l2.703 1.114-2.64 1.091c-.709.28-.769 1.358-.063 1.669 2.328.963 4.691 1.934 6.686 2.754.686.255 1.42.258 2.068-.002 2.328-.956 4.689-1.93 6.68-2.752.706-.311.646-1.39-.062-1.669l-2.273-.939c-.339-.166-.559.369-.202.49.76.312 1.52.632 2.28.942.268.105.303.576.044.69L9.32 15.48c-.518.208-1.11.208-1.681-.002L.976 12.732c-.259-.114-.224-.585.043-.69 1.047-.43 2.095-.865 3.141-1.298 1.097.451 2.192.906 3.289 1.355.686.255 1.42.258 2.068-.002 2.328-.953 4.687-1.936 6.68-2.753.706-.31.646-1.39-.062-1.668l-2.64-1.09c.9-.372 1.802-.745 2.703-1.115.705-.31.645-1.39-.063-1.668C13.87 2.856 11.591 1.94 9.329.99 8.707.73 8.234.749 7.633.99zm1.494.49c2.373.982 4.783 1.976 6.814 2.815.267.106.302.577.043.691L9.32 7.733c-.52.208-1.115.208-1.687-.005L.976 4.986c-.269-.118-.216-.595.047-.693l6.806-2.81c.558-.229.808-.2 1.298-.003z" opacity="1" />
  </g>
</svg>