<svg width="24" height="24" viewBox="0 0 24 24" fill="none" xmlns="http://www.w3.org/2000/svg">
    <g clip-path="url(#clip0_2195_9719)">
        <path d="M24 9V19C24 21.757 21.757 24 19 24H5C2.243 24 0 21.757 0 19V9C0 6.243 2.243 4 5 4H9V3C9 1.346 10.346 0 12 0C13.654 0 15 1.346 15 3V4H19C21.757 4 24 6.243 24 9ZM11 7H13.001V3C13 2.448 12.551 2 12 2C11.449 2 11 2.448 11 3V7ZM9.5 12.5C9.5 13.879 10.621 15 12 15C13.379 15 14.5 13.879 14.5 12.5C14.5 11.121 13.379 10 12 10C10.621 10 9.5 11.121 9.5 12.5ZM16.968 19.751C16.409 17.577 14.32 16 12 16C9.68 16 7.59 17.577 7.032 19.751C6.894 20.286 7.216 20.831 7.751 20.969C8.288 21.108 8.831 20.783 8.968 20.249C9.298 18.967 10.601 18 12 18C13.399 18 14.702 18.967 15.032 20.249C15.148 20.7 15.554 21 16 21C16.082 21 16.166 20.99 16.25 20.969C16.785 20.831 17.106 20.286 16.968 19.751Z"
              fill="white"/>
    </g>
    <defs>
        <clipPath id="clip0_2195_9719">
            <rect width="24" height="24" fill="white"/>
        </clipPath>
    </defs>
</svg>
