<svg width="19" height="24" viewBox="0 0 19 24" fill="none" xmlns="http://www.w3.org/2000/svg">
    <path d="M13.5 2H13.329C12.916 0.836 11.804 0 10.5 0H8.5C7.196 0 6.084 0.836 5.671 2H5.5C2.743 2 0.5 4.243 0.5 7V19C0.5 21.757 2.743 24 5.5 24H13.5C16.257 24 18.5 21.757 18.5 19V7C18.5 4.243 16.257 2 13.5 2ZM4.5 18C3.948 18 3.5 17.552 3.5 17C3.5 16.448 3.948 16 4.5 16C5.052 16 5.5 16.448 5.5 17C5.5 17.552 5.052 18 4.5 18ZM14.5 18H8.5C7.948 18 7.5 17.552 7.5 17C7.5 16.448 7.948 16 8.5 16H14.5C15.052 16 15.5 16.448 15.5 17C15.5 17.552 15.052 18 14.5 18ZM4.5 14C3.948 14 3.5 13.552 3.5 13C3.5 12.448 3.948 12 4.5 12C5.052 12 5.5 12.448 5.5 13C5.5 13.552 5.052 14 4.5 14ZM14.5 14H8.5C7.948 14 7.5 13.552 7.5 13C7.5 12.448 7.948 12 8.5 12H14.5C15.052 12 15.5 12.448 15.5 13C15.5 13.552 15.052 14 14.5 14ZM4.5 10C3.948 10 3.5 9.552 3.5 9C3.5 8.448 3.948 8 4.5 8C5.052 8 5.5 8.448 5.5 9C5.5 9.552 5.052 10 4.5 10ZM14.5 10H8.5C7.948 10 7.5 9.552 7.5 9C7.5 8.448 7.948 8 8.5 8H14.5C15.052 8 15.5 8.448 15.5 9C15.5 9.552 15.052 10 14.5 10Z" fill=""/>
</svg>
