<svg width="24" height="24" viewBox="0 0 24 24" fill="none" xmlns="http://www.w3.org/2000/svg">
    <path d="M3.53027 11.47V13.588C3.53014 14.1442 3.63959 14.695 3.85236 15.209C4.06513 15.7229 4.37705 16.1899 4.77032 16.5832C5.16359 16.9766 5.6305 17.2886 6.14438 17.5015C6.65826 17.7144 7.20904 17.824 7.76527 17.824H20.4703M3.53027 6.176H16.2353C16.7916 6.17587 17.3425 6.28535 17.8565 6.49818C18.3705 6.71101 18.8375 7.02303 19.2309 7.4164C19.6242 7.80978 19.9363 8.2768 20.1491 8.7908C20.3619 9.30479 20.4714 9.85568 20.4713 10.412V12.529"
          stroke="#292929" stroke-width="1.5" stroke-linecap="round" stroke-linejoin="round"/>
    <path d="M17.2943 14.647L20.4713 17.823L17.2943 21M6.7063 9.353L3.5293 6.176L6.7063 3" stroke="#292929"
          stroke-width="1.5" stroke-linecap="round" stroke-linejoin="round"/>
</svg>
