<svg width="22" height="21" viewBox="0 0 22 21" fill="none" xmlns="http://www.w3.org/2000/svg">
    <path d="M20.9842 9.72318L16.7561 13.4132L18.0226 18.9069C18.0897 19.1941 18.0705 19.4947 17.9677 19.7711C17.8648 20.0475 17.6827 20.2874 17.4442 20.4609C17.2057 20.6344 16.9214 20.7337 16.6267 20.7464C16.3321 20.7592 16.0402 20.6848 15.7876 20.5326L10.9961 17.6263L6.21483 20.5326C5.96223 20.6848 5.67038 20.7592 5.37574 20.7464C5.0811 20.7337 4.79676 20.6344 4.55826 20.4609C4.31976 20.2874 4.13769 20.0475 4.03481 19.7711C3.93193 19.4947 3.9128 19.1941 3.97983 18.9069L5.24451 13.4188L1.01545 9.72318C0.791771 9.53027 0.630028 9.27561 0.550503 8.99113C0.470978 8.70666 0.477213 8.40504 0.568424 8.1241C0.659636 7.84315 0.831764 7.59539 1.06322 7.41188C1.29468 7.22838 1.57517 7.11729 1.86951 7.09256L7.44389 6.60974L9.61983 1.41974C9.73346 1.14742 9.92512 0.914795 10.1707 0.751174C10.4163 0.587552 10.7047 0.500244 10.9998 0.500244C11.2949 0.500244 11.5834 0.587552 11.829 0.751174C12.0745 0.914795 12.2662 1.14742 12.3798 1.41974L14.5623 6.60974L20.1348 7.09256C20.4292 7.11729 20.7097 7.22838 20.9411 7.41188C21.1726 7.59539 21.3447 7.84315 21.4359 8.1241C21.5271 8.40504 21.5334 8.70666 21.4538 8.99113C21.3743 9.27561 21.2126 9.53027 20.9889 9.72318H20.9842Z"
          fill="#F1C40F"/>
</svg>
