<svg width="25" height="24" viewBox="0 0 25 24" fill="none" xmlns="http://www.w3.org/2000/svg">
    <path d="M23 10.8334C23 10.7725 22.9933 10.7119 22.98 10.6525L21.8967 5.76256C21.6954 4.83443 21.1811 4.00372 20.4401 3.40972C19.6991 2.81572 18.7764 2.49455 17.8267 2.50007H8.17333C7.22421 2.49532 6.30228 2.81684 5.56194 3.41077C4.82161 4.00471 4.30783 4.83499 4.10667 5.76256L3.02 10.6525C3.00667 10.7119 2.99997 10.7725 3 10.8334V11.6667C2.99933 12.478 3.29577 13.2615 3.83333 13.8692V18.3333C3.83466 19.438 4.27407 20.497 5.05518 21.2782C5.8363 22.0593 6.89534 22.4987 8 22.5H18C19.1047 22.4987 20.1637 22.0593 20.9448 21.2782C21.7259 20.497 22.1653 19.438 22.1667 18.3333V13.8692C22.7042 13.2615 23.0007 12.478 23 11.6667V10.8334ZM4.66667 10.9242L5.73333 6.12422C5.8542 5.56777 6.16251 5.06971 6.60668 4.71338C7.05084 4.35705 7.60391 4.16407 8.17333 4.16673H8.83333V6.66672C8.83333 6.88773 8.92113 7.0997 9.07741 7.25598C9.23369 7.41226 9.44565 7.50005 9.66667 7.50005C9.88768 7.50005 10.0996 7.41226 10.2559 7.25598C10.4122 7.0997 10.5 6.88773 10.5 6.66672V4.16673H15.5V6.66672C15.5 6.88773 15.5878 7.0997 15.7441 7.25598C15.9004 7.41226 16.1123 7.50005 16.3333 7.50005C16.5543 7.50005 16.7663 7.41226 16.9226 7.25598C17.0789 7.0997 17.1667 6.88773 17.1667 6.66672V4.16673H17.8267C18.3961 4.16407 18.9492 4.35705 19.3933 4.71338C19.8375 5.06971 20.1458 5.56777 20.2667 6.12422L21.3333 10.9242V11.6667C21.3333 12.1087 21.1577 12.5327 20.8452 12.8452C20.5326 13.1578 20.1087 13.3334 19.6667 13.3334H18.8333C18.3913 13.3334 17.9674 13.1578 17.6548 12.8452C17.3423 12.5327 17.1667 12.1087 17.1667 11.6667C17.1667 11.4457 17.0789 11.2337 16.9226 11.0775C16.7663 10.9212 16.5543 10.8334 16.3333 10.8334C16.1123 10.8334 15.9004 10.9212 15.7441 11.0775C15.5878 11.2337 15.5 11.4457 15.5 11.6667C15.5 12.1087 15.3244 12.5327 15.0118 12.8452C14.6993 13.1578 14.2754 13.3334 13.8333 13.3334H12.1667C11.7246 13.3334 11.3007 13.1578 10.9882 12.8452C10.6756 12.5327 10.5 12.1087 10.5 11.6667C10.5 11.4457 10.4122 11.2337 10.2559 11.0775C10.0996 10.9212 9.88768 10.8334 9.66667 10.8334C9.44565 10.8334 9.23369 10.9212 9.07741 11.0775C8.92113 11.2337 8.83333 11.4457 8.83333 11.6667C8.83333 12.1087 8.65774 12.5327 8.34518 12.8452C8.03262 13.1578 7.6087 13.3334 7.16667 13.3334H6.33333C5.89131 13.3334 5.46738 13.1578 5.15482 12.8452C4.84226 12.5327 4.66667 12.1087 4.66667 11.6667V10.9242ZM18 20.8333H8C7.33696 20.8333 6.70107 20.5699 6.23223 20.1011C5.76339 19.6323 5.5 18.9964 5.5 18.3333V14.8942C5.77217 14.9647 6.05219 15.0002 6.33333 15H7.16667C7.63985 15.0003 8.10763 14.8995 8.53875 14.7045C8.96988 14.5095 9.35442 14.2247 9.66667 13.8692C9.97892 14.2247 10.3635 14.5095 10.7946 14.7045C11.2257 14.8995 11.6935 15.0003 12.1667 15H13.8333C14.3065 15.0003 14.7743 14.8995 15.2054 14.7045C15.6365 14.5095 16.0211 14.2247 16.3333 13.8692C16.6456 14.2247 17.0301 14.5095 17.4612 14.7045C17.8924 14.8995 18.3602 15.0003 18.8333 15H19.6667C19.9478 15.0002 20.2278 14.9647 20.5 14.8942V18.3333C20.5 18.9964 20.2366 19.6323 19.7678 20.1011C19.2989 20.5699 18.663 20.8333 18 20.8333Z"
          fill="#888888"/>
</svg>
